HIERARCHY
ROOT Hips
{
 OFFSET 0.000000 0.000000 0.000000
 CHANNELS 6 Xposition Yposition Zposition Yrotation Xrotation Zrotation
 JOINT Chest
 {
  OFFSET 0.000000 11.395451 -0.039534
  CHANNELS 3 Yrotation Xrotation Zrotation
  JOINT Chest2
  {
   OFFSET 0.000000 9.398669 0.071813
   CHANNELS 3 Yrotation Xrotation Zrotation
   JOINT Chest3
   {
    OFFSET 0.000000 8.489801 0.000000
    CHANNELS 3 Yrotation Xrotation Zrotation
    JOINT Chest4
    {
     OFFSET 0.000000 8.489801 0.000000
     CHANNELS 3 Yrotation Xrotation Zrotation
     JOINT Neck
     {
      OFFSET 0.000000 12.404889 0.000000
      CHANNELS 3 Yrotation Xrotation Zrotation
      JOINT Head
      {
       OFFSET 0.000000 8.903270 0.092239
       CHANNELS 3 Yrotation Xrotation Zrotation
       End Site
       {
        OFFSET 0.000000 17.592497 0.007158
       }
      }
     }
     JOINT RightCollar
     {
      OFFSET -3.196775 6.966722 0.000000
      CHANNELS 3 Yrotation Xrotation Zrotation
      JOINT RightShoulder
      {
       OFFSET -15.955896 0.000000 0.000000
       CHANNELS 3 Yrotation Xrotation Zrotation
       JOINT RightElbow
       {
        OFFSET -24.792472 0.000000 0.000000
        CHANNELS 3 Yrotation Xrotation Zrotation
        JOINT RightWrist
        {
         OFFSET -20.900115 0.000000 0.025002
         CHANNELS 3 Yrotation Xrotation Zrotation
         End Site
         {
          OFFSET -16.056692 0.000000 0.000000
         }
        }
       }
      }
     }
     JOINT LeftCollar
     {
      OFFSET 3.196775 6.966722 0.000000
      CHANNELS 3 Yrotation Xrotation Zrotation
      JOINT LeftShoulder
      {
       OFFSET 15.955896 0.000000 0.000000
       CHANNELS 3 Yrotation Xrotation Zrotation
       JOINT LeftElbow
       {
        OFFSET 24.792472 0.000000 0.000000
        CHANNELS 3 Yrotation Xrotation Zrotation
        JOINT LeftWrist
        {
         OFFSET 20.900115 0.000000 0.025002
         CHANNELS 3 Yrotation Xrotation Zrotation
         End Site
         {
          OFFSET 16.056692 0.000000 0.000000
         }
        }
       }
      }
     }
    }
   }
  }
 }
 JOINT RightHip
 {
  OFFSET -9.568995 0.193718 0.019767
  CHANNELS 3 Yrotation Xrotation Zrotation
  JOINT RightKnee
  {
   OFFSET 0.000000 -56.649296 0.015402
   CHANNELS 3 Yrotation Xrotation Zrotation
   JOINT RightAnkle
   {
    OFFSET 0.000000 -41.365147 0.021264
    CHANNELS 3 Yrotation Xrotation Zrotation
    JOINT RightToe
    {
     OFFSET 0.000000 -7.465940 17.672538
     CHANNELS 3 Yrotation Xrotation Zrotation
     End Site
     {
      OFFSET 0.000000 -1.736315 7.837145
     }
    }
   }
  }
 }
 JOINT LeftHip
 {
  OFFSET 9.568995 0.193718 0.019767
  CHANNELS 3 Yrotation Xrotation Zrotation
  JOINT LeftKnee
  {
   OFFSET 0.000000 -56.649296 0.015402
   CHANNELS 3 Yrotation Xrotation Zrotation
   JOINT LeftAnkle
   {
    OFFSET 0.000000 -41.365147 0.021264
    CHANNELS 3 Yrotation Xrotation Zrotation
    JOINT LeftToe
    {
     OFFSET 0.000000 -7.465940 17.672538
     CHANNELS 3 Yrotation Xrotation Zrotation
     End Site
     {
      OFFSET 0.000000 -1.736315 7.837145
     }
    }
   }
  }
 }
}
MOTION
Frames: 12
Frame Time: 0.016667
313.695020 106.552173 385.739658 60.655700 -7.292137 -2.187397 -3.922777 6.554872 -0.265127 -1.736766 2.915440 -0.062135 -1.736766 2.915440 -0.062135 -1.301997 2.186777 -0.038300 -3.268828 14.729406 0.959828 -6.500283 -8.706139 3.050755 3.702191 1.461883 9.064443 3.725994 -7.295154 79.507791 3.740900 -1.930846 1.816111 -4.367261 -3.589039 4.362054 -3.416115 4.907981 -5.388346 -0.490996 -15.677957 -80.327274 -1.814135 9.105193 -5.506735 5.884454 -6.155637 -3.259375 9.726172 11.491094 3.116127 -1.046873 0.464172 -0.021094 -2.296605 -4.705922 0.022145 0.000000 -0.000000 -0.000000 -1.131293 13.129432 -3.092419 -1.604647 1.018634 0.856310 -1.262111 -7.439939 2.400320 0.000000 -0.000000 0.000000
313.590455 106.536696 385.783682 60.665866 -7.293019 -2.152700 -3.908941 6.503964 -0.242224 -1.731024 2.892616 -0.052602 -1.731024 2.892616 -0.052601 -1.297743 2.169632 -0.031243 -3.286149 14.751263 0.938343 -6.523377 -8.665998 3.015692 3.671140 1.549517 8.985927 3.753023 -7.335462 79.725918 3.564829 -1.990114 1.638272 -4.360007 -3.591560 4.267491 -3.365443 4.974639 -5.514061 -0.606772 -15.502933 -80.262833 -1.818729 9.131108 -5.469035 5.799872 -6.139930 -3.293695 9.738809 11.416066 3.148283 -1.119305 0.557595 -0.007051 -2.236720 -4.783171 -0.029418 0.000000 -0.000000 -0.000000 -1.065716 13.070633 -3.089909 -1.779342 1.074904 0.929228 -1.185060 -7.459057 2.304846 0.000000 -0.000000 -0.000000
313.485890 106.521219 385.827706 60.676032 -7.293906 -2.118003 -3.895096 6.453054 -0.219346 -1.725271 2.869791 -0.043078 -1.725271 2.869791 -0.043077 -1.293480 2.152486 -0.024193 -3.303477 14.773115 0.916847 -6.546494 -8.625868 2.980620 3.640007 1.637142 8.907382 3.779817 -7.375977 79.944046 3.389080 -2.050416 1.460628 -4.352694 -3.594253 4.172933 -3.314777 5.041617 -5.639559 -0.722221 -15.327818 -80.198559 -1.823291 9.156940 -5.431273 5.715246 -6.124256 -3.327956 9.751439 11.341030 3.180400 -1.191839 0.650947 0.006830 -2.176673 -4.860325 -0.081034 0.000000 -0.000000 -0.000000 -1.000123 13.011872 -3.087479 -1.954073 1.131227 1.001859 -1.107936 -7.478095 2.209381 -0.000000 0.000000 -0.000000
313.382975 106.508685 385.870659 60.674088 -7.296586 -2.085374 -3.879194 6.405883 -0.196895 -1.718589 2.848632 -0.033737 -1.718589 2.848632 -0.033737 -1.288519 2.136589 -0.017281 -3.318348 14.791711 0.896945 -6.565797 -8.591817 2.947810 3.613412 1.721400 8.834245 3.798377 -7.409196 80.138161 3.236081 -2.099584 1.306527 -4.347181 -3.595920 4.088312 -3.264150 5.107056 -5.758480 -0.825942 -15.162768 -80.138981 -1.835306 9.178815 -5.399747 5.631480 -6.112742 -3.355162 9.772182 11.266869 3.208195 -1.252681 0.742431 0.017568 -2.129126 -4.931869 -0.125288 0.000000 0.000000 0.000000 -0.940238 12.958266 -3.081801 -2.105807 1.182979 1.064684 -1.033030 -7.497936 2.122565 0.000000 -0.000000 0.000000
313.282168 106.500721 385.912187 60.653764 -7.300748 -2.055877 -3.859158 6.363675 -0.174703 -1.710057 2.829682 -0.024521 -1.710058 2.829682 -0.024521 -1.282169 2.122350 -0.010464 -3.329614 14.805180 0.879091 -6.579398 -8.567350 2.917789 3.593504 1.800938 8.769184 3.806367 -7.431383 80.296378 3.113767 -2.132124 1.186582 -4.345241 -3.595054 4.019838 -3.213564 5.170586 -5.868054 -0.913921 -15.012212 -80.086566 -1.859310 9.193648 -5.376941 5.547593 -6.108182 -3.370408 9.808180 11.192070 3.229076 -1.294816 0.832281 0.023363 -2.105460 -4.996047 -0.157330 0.000000 -0.000000 0.000000 -0.888867 12.911512 -3.070922 -2.223948 1.227330 1.113542 -0.960531 -7.519261 2.048584 0.000000 -0.000000 -0.000000
313.183011 106.495701 385.952645 60.621327 -7.306682 -2.028443 -3.837073 6.325221 -0.152909 -1.700602 2.812405 -0.015474 -1.700602 2.812405 -0.015474 -1.275124 2.109366 -0.003772 -3.338411 14.815396 0.862837 -6.589160 -8.548953 2.890033 3.578136 1.877111 8.709548 3.806298 -7.446096 80.430585 3.013960 -2.152879 1.090007 -4.345143 -3.593070 3.961291 -3.163048 5.232478 -5.971113 -0.990313 -14.871777 -80.038733 -1.890794 9.204573 -5.360411 5.464606 -6.107782 -3.378643 9.852300 11.118167 3.245659 -1.325214 0.920315 0.026123 -2.094395 -5.054704 -0.181964 -0.000000 -0.000000 0.000000 -0.843218 12.869890 -3.056724 -2.319088 1.267054 1.152751 -0.890263 -7.541394 1.983248 -0.000000 -0.000000 0.000000
313.085778 106.491693 385.992029 60.583469 -7.317060 -2.001933 -3.817139 6.290622 -0.132364 -1.692076 2.796853 -0.006917 -1.692076 2.796853 -0.006917 -1.268773 2.097678 0.002562 -3.345711 14.824726 0.848436 -6.596869 -8.532166 2.865238 3.565486 1.950615 8.652786 3.797485 -7.456677 80.552434 2.934857 -2.164944 1.007954 -4.343472 -3.593108 3.903967 -3.112664 5.291790 -6.069736 -1.056010 -14.738430 -79.992419 -1.923675 9.217066 -5.349069 5.386424 -6.107281 -3.387657 9.891241 11.050619 3.261502 -1.353058 1.004119 0.028418 -2.074614 -5.107731 -0.206251 -0.000000 0.000000 -0.000000 -0.800612 12.833386 -3.041607 -2.399978 1.305909 1.185553 -0.823971 -7.563188 1.922627 0.000000 0.000000 0.000000
312.990532 106.488241 386.030198 60.539283 -7.333521 -1.976280 -3.799416 6.260631 -0.113034 -1.684506 2.783361 0.001173 -1.684506 2.783361 0.001173 -1.263137 2.087536 0.008556 -3.351398 14.833041 0.836527 -6.602560 -8.517189 2.844568 3.556187 2.021448 8.597962 3.777573 -7.462538 80.664245 2.880661 -2.166940 0.939390 -4.338526 -3.596436 3.844517 -3.061377 5.347327 -6.164122 -1.108215 -14.611370 -79.947205 -1.959495 9.232911 -5.346051 5.314586 -6.105558 -3.400854 9.923496 10.990809 3.278334 -1.380843 1.084190 0.031285 -2.039146 -5.154920 -0.232824 -0.000000 0.000000 -0.000000 -0.759388 12.802773 -3.025868 -2.467927 1.345224 1.212027 -0.761628 -7.584893 1.866490 0.000000 -0.000000 0.000000
312.897209 106.485802 386.067294 60.489667 -7.354422 -1.951534 -3.783848 6.234497 -0.094940 -1.677869 2.771596 0.008777 -1.677869 2.771596 0.008777 -1.258196 2.078691 0.014196 -3.355590 14.840468 0.826472 -6.606203 -8.503826 2.826858 3.549615 2.089599 8.545996 3.748955 -7.464173 80.763692 2.847109 -2.159956 0.885289 -4.331977 -3.601728 3.786297 -3.010217 5.400209 -6.254123 -1.149782 -14.491423 -79.903477 -1.996723 9.250345 -5.348218 5.247549 -6.103718 -3.414823 9.950568 10.937355 3.294467 -1.406064 1.160036 0.033660 -1.994979 -5.196456 -0.259050 0.000000 0.000000 -0.000000 -0.721213 12.777278 -3.009186 -2.521624 1.383661 1.232143 -0.703277 -7.606280 1.815064 0.000000 -0.000000 -0.000000
312.805896 106.483817 386.103740 60.444017 -7.377515 -1.926741 -3.774449 6.210058 -0.079031 -1.673937 2.760604 0.015510 -1.673937 2.760604 0.015510 -1.255280 2.070429 0.019197 -3.359621 14.849743 0.816596 -6.609514 -8.487032 2.809308 3.542061 2.155730 8.497100 3.718019 -7.466549 80.855459 2.819770 -2.150922 0.839825 -4.325440 -3.608258 3.730658 -2.962345 5.452954 -6.341304 -1.190024 -14.377961 -79.859450 -2.024657 9.269513 -5.345042 5.184588 -6.100843 -3.427098 9.963677 10.891563 3.308328 -1.430406 1.227747 0.034910 -1.941710 -5.232785 -0.284100 0.000000 0.000000 0.000000 -0.688398 12.754569 -2.993050 -2.565902 1.420997 1.248941 -0.650773 -7.625487 1.765103 0.000000 -0.000000 0.000000
312.716754 106.482168 386.139718 60.405437 -7.402612 -1.902031 -3.773564 6.187033 -0.065745 -1.673744 2.750264 0.021206 -1.673744 2.750264 0.021206 -1.255162 2.062658 0.023438 -3.363128 14.861611 0.806747 -6.611720 -8.465455 2.791451 3.531294 2.219615 8.452579 3.686940 -7.471754 80.938911 2.794950 -2.141689 0.802614 -4.318957 -3.615887 3.677354 -2.919241 5.507021 -6.425915 -1.230711 -14.271092 -79.814561 -2.039660 9.293187 -5.332834 5.124658 -6.096815 -3.435942 9.954509 10.855223 3.319173 -1.453775 1.284852 0.034169 -1.874729 -5.263491 -0.307423 0.000000 -0.000000 -0.000000 -0.664492 12.734280 -2.978103 -2.598764 1.457272 1.263254 -0.604978 -7.641942 1.715132 0.000000 -0.000000 0.000000
312.629622 106.480973 386.175047 60.370820 -7.429908 -1.877275 -3.778844 6.165694 -0.054651 -1.676255 2.740690 0.026025 -1.676255 2.740690 0.026025 -1.257068 2.055464 0.027037 -3.366482 14.875324 0.797068 -6.613612 -8.440454 2.773743 3.519559 2.281452 8.411083 3.653532 -7.477665 81.014688 2.776341 -2.130346 0.774042 -4.312453 -3.624729 3.626632 -2.879429 5.560861 -6.507762 -1.270075 -14.170679 -79.769440 -2.045344 9.318582 -5.315263 5.068792 -6.091760 -3.443048 9.931381 10.826535 3.327733 -1.476247 1.333820 0.032304 -1.798663 -5.288974 -0.329552 0.000000 0.000000 0.000000 -0.645947 12.716771 -2.963706 -2.622203 1.492451 1.274293 -0.565045 -7.656236 1.666625 0.000000 -0.000000 0.000000
